<svg version="1.2" baseProfile="tiny-ps" xmlns="http://www.w3.org/2000/svg" viewBox="0 0 58 51" width="58" height="51">
	<title>Shape 44</title>
	<style>
		tspan { white-space:pre }
		.shp0 { fill: #ffffff } 
	</style>
	<path id="Shape 44" class="shp0" d="M53.42 49L3.58 49C2.15 49 1 47.85 1 46.43L1 3.57C1 2.15 2.15 1 3.58 1L53.42 1C54.85 1 56 2.15 56 3.57L56 46.43C56 47.85 54.85 49 53.42 49ZM6.16 3.57C4.73 3.57 3.58 4.72 3.58 6.14C3.58 7.56 4.73 8.71 6.16 8.71C7.58 8.71 8.73 7.56 8.73 6.14C8.73 4.72 7.58 3.57 6.16 3.57ZM13.89 3.57C12.47 3.57 11.31 4.72 11.31 6.14C11.31 7.56 12.47 8.71 13.89 8.71C15.31 8.71 16.47 7.56 16.47 6.14C16.47 4.72 15.31 3.57 13.89 3.57ZM21.63 3.57C20.2 3.57 19.05 4.72 19.05 6.14C19.05 7.56 20.2 8.71 21.63 8.71C23.05 8.71 24.2 7.56 24.2 6.14C24.2 4.72 23.05 3.57 21.63 3.57ZM53.42 11.29L50.84 11.29L6.16 11.29L3.58 11.29L3.58 46.43L53.42 46.43L53.42 11.29Z" />
</svg>