<svg version="1.2" baseProfile="tiny-ps" xmlns="http://www.w3.org/2000/svg" viewBox="0 0 36 36" width="36" height="36">
	<title>Shape 38</title>
	<style>
		tspan { white-space:pre }
		.bg { fill: #96a5b4 } 
	</style>
	<path id="Shape 38" class="bg" d="M18.5 35C9.39 35 2 27.61 2 18.5C2 9.39 9.39 2 18.5 2C27.61 2 35 9.39 35 18.5C35 27.61 27.61 35 18.5 35ZM18.5 5.09C11.1 5.09 5.09 11.1 5.09 18.5C5.09 25.9 11.1 31.91 18.5 31.91C25.9 31.91 31.91 25.9 31.91 18.5C31.91 11.1 25.9 5.09 18.5 5.09ZM24.29 21.08L19.65 26.24L19.65 26.23C19.36 26.55 18.96 26.75 18.5 26.75C18.04 26.75 17.64 26.55 17.35 26.23L17.35 26.24L12.71 21.08L12.71 21.08C12.47 20.8 12.31 20.44 12.31 20.05C12.31 19.19 13.01 18.5 13.86 18.5C14.32 18.5 14.72 18.7 15.01 19.02L15.01 19.01L16.95 21.17L16.95 11.8C16.95 10.94 17.65 10.25 18.5 10.25C19.35 10.25 20.05 10.94 20.05 11.8L20.05 21.17L21.99 19.01L21.99 19.02C22.28 18.7 22.68 18.5 23.14 18.5C23.99 18.5 24.69 19.19 24.69 20.05C24.69 20.44 24.53 20.8 24.29 21.08L24.29 21.08Z" />
</svg>