<svg version="1.2" baseProfile="tiny-ps" xmlns="http://www.w3.org/2000/svg" viewBox="0 0 53 42" width="53" height="42">
	<title>Shape 43</title>
	<style>
		tspan { white-space:pre }
		.shp0 { fill: #ffffff } 
	</style>
	<path id="Shape 43" class="shp0" d="M50.79 9.81L50.79 9.81L43.76 25.5L43.76 25.5C43.42 26.27 42.67 26.82 41.78 26.88L41.78 26.88L21.53 28.23L22.7 31.59L44.75 31.59C47.34 31.59 49.44 33.7 49.44 36.29C49.44 38.89 47.34 41 44.75 41C42.16 41 40.06 38.89 40.06 36.29L18.19 36.29C18.19 38.89 16.09 41 13.5 41C10.91 41 8.81 38.89 8.81 36.29C8.81 33.7 10.91 31.59 13.5 31.59L17.74 31.59L8.71 5.71L3.34 5.71C2.05 5.71 1 4.65 1 3.35C1 2.05 2.05 1 3.34 1L10.38 1C11.4 1 12.26 1.66 12.58 2.58L12.59 2.58L13.95 6.49L48.66 6.49C49.95 6.49 51 7.54 51 8.84C51 9.19 50.92 9.51 50.79 9.81ZM15.59 11.2L19.93 23.62L40.07 22.28L45.03 11.2L15.59 11.2Z" />
</svg>